<?xml version="1.0" encoding="UTF-8" standalone="no"?>
<!DOCTYPE svg PUBLIC "-//W3C//DTD SVG 1.1//EN"
 "http://www.w3.org/Graphics/SVG/1.1/DTD/svg11.dtd">
<!-- Generated by graphviz version 14.1.2 (20260124.0452)
 -->
<!-- Title: input Pages: 1 -->
<svg width="276pt" height="205pt"
 viewBox="0.00 0.00 276.00 205.00" xmlns="http://www.w3.org/2000/svg" xmlns:xlink="http://www.w3.org/1999/xlink">
<g id="graph0" class="graph" transform="scale(1 1) rotate(0) translate(4 200.5)">
<title>input</title>
<polygon fill="white" stroke="none" points="-4,4 -4,-200.5 272.07,-200.5 272.07,4 -4,4"/>
<!-- start_if -->
<g id="node1" class="node">
<title>start_if</title>
<polygon fill="none" stroke="black" points="122.28,-180 95.28,-162 122.28,-144 149.28,-162 122.28,-180"/>
<text xml:space="preserve" text-anchor="middle" x="80.65" y="-183.2" font-family="Times,serif" font-size="14.00">x &gt; 0</text>
</g>
<!-- assign_y -->
<g id="node3" class="node">
<title>assign_y</title>
<polygon fill="none" stroke="black" points="102.56,-108 20.98,-108 0,-72 81.57,-72 102.56,-108"/>
<text xml:space="preserve" text-anchor="middle" x="51.28" y="-84.95" font-family="Times,serif" font-size="14.00">y ← 1</text>
</g>
<!-- start_if&#45;&gt;assign_y -->
<g id="edge1" class="edge">
<title>start_if&#45;&gt;assign_y</title>
<path fill="none" stroke="black" d="M111.8,-150.67C102.65,-141.65 88.98,-128.18 76.95,-116.31"/>
<polygon fill="black" stroke="black" points="79.62,-114.02 70.04,-109.5 74.7,-119.01 79.62,-114.02"/>
</g>
<!-- update_y -->
<g id="node4" class="node">
<title>update_y</title>
<polygon fill="none" stroke="black" points="268.07,-108 150.68,-108 120.49,-72 237.87,-72 268.07,-108"/>
<text xml:space="preserve" text-anchor="middle" x="194.28" y="-84.95" font-family="Times,serif" font-size="14.00">y ← x + 1</text>
</g>
<!-- start_if&#45;&gt;update_y -->
<g id="edge3" class="edge">
<title>start_if&#45;&gt;update_y</title>
<path fill="none" stroke="black" d="M132.9,-150.67C142.18,-141.65 156.04,-128.18 168.24,-116.31"/>
<polygon fill="black" stroke="black" points="170.53,-118.97 175.26,-109.49 165.65,-113.95 170.53,-118.97"/>
<text xml:space="preserve" text-anchor="middle" x="144.23" y="-116.14" font-family="Times,serif" font-size="14.00">else</text>
</g>
<!-- end_if -->
<g id="node2" class="node">
<title>end_if</title>
<polygon fill="none" stroke="black" points="122.28,-36 95.28,-18 122.28,0 149.28,-18 122.28,-36"/>
</g>
<!-- assign_y&#45;&gt;end_if -->
<g id="edge2" class="edge">
<title>assign_y&#45;&gt;end_if</title>
<path fill="none" stroke="black" d="M68.83,-71.7C79.46,-61.22 93,-47.87 103.79,-37.23"/>
<polygon fill="black" stroke="black" points="106.01,-39.96 110.67,-30.44 101.09,-34.97 106.01,-39.96"/>
</g>
<!-- update_y&#45;&gt;end_if -->
<g id="edge4" class="edge">
<title>update_y&#45;&gt;end_if</title>
<path fill="none" stroke="black" d="M176.48,-71.7C165.7,-61.22 151.97,-47.87 141.03,-37.23"/>
<polygon fill="black" stroke="black" points="143.65,-34.9 134.04,-30.44 138.77,-39.92 143.65,-34.9"/>
</g>
</g>
</svg>
